<svg xmlns="http://www.w3.org/2000/svg" viewBox="0 0 48 48">
  <radialGradient id="a" cx="14.978" cy="14.799" r="34.069" gradientUnits="userSpaceOnUse">
    <stop offset="0" stop-color="#7b83eb"/>
    <stop offset="1" stop-color="#5961c3"/>
  </radialGradient>
  <path fill="url(#a)" d="M40 37H8c-1.105 0-2-.895-2-2V8c0-1.105.895-2 2-2h32c1.105 0 2 .895 2 2v27c0 1.105-.895 2-2 2z"/>
  <linearGradient id="b" x1="19" x2="19" y1="27.614" y2="41.035" gradientUnits="userSpaceOnUse">
    <stop offset="0" stop-color="#5c65d6"/>
    <stop offset=".999" stop-color="#464eb0"/>
  </linearGradient>
  <path fill="url(#b)" d="M15 28c-3.309 0-6.388.509-9 1.375V40c0 1.105.895 2 2 2h21.133C30.942 40.57 32 38.851 32 37c0-4.971-7.611-9-17-9z"/>
  <linearGradient id="c" x1="28.706" x2="32.366" y1="8.953" y2="19.006" gradientUnits="userSpaceOnUse">
    <stop offset="0" stop-color="#3940a4"/>
    <stop offset="1" stop-color="#293091"/>
  </linearGradient>
  <path fill="url(#c)" d="M37.339 17.534c.412-.574.661-1.273.661-2.034 0-1.777-1.33-3.229-3.046-3.454C34.74 10.883 33.725 10 32.5 10s-2.24.883-2.454 2.046C28.33 12.271 27 13.723 27 15.5c0 .761.249 1.46.661 2.034-.994.617-1.661 1.71-1.661 2.966 0 1.933 1.567 3.5 3.5 3.5.061 0 .118-.015.178-.018.237.68.712 1.244 1.322 1.603v4.882c0 .294.224.533.5.533h2c.276 0 .5-.239.5-.533v-4.882c.61-.359 1.085-.923 1.322-1.603.06.003.117.018.178.018 1.933 0 3.5-1.567 3.5-3.5 0-1.256-.667-2.349-1.661-2.966z"/>
  <linearGradient id="d" x1="24" x2="24" y1="31.038" y2="47.557" gradientUnits="userSpaceOnUse">
    <stop offset="0" stop-color="#3940a4"/>
    <stop offset="1" stop-color="#293091"/>
  </linearGradient>
  <path fill="url(#d)" d="M42 31v1c-2-2-5-3-9.5-3-4.472 0-9.437 2.962-13.092 5.286C16.605 36.068 13.346 37 10.025 37H6v3c0 1.105.895 2 2 2h32c1.105 0 2-.895 2-2v-9z"/>
  <radialGradient id="e" cx="18.565" cy="21.239" r="9.559" gradientUnits="userSpaceOnUse">
    <stop offset="0" stop-color="#6d75d6"/>
    <stop offset=".123" stop-color="#8189de"/>
    <stop offset=".384" stop-color="#a7adec"/>
    <stop offset=".625" stop-color="#c3c7f6"/>
    <stop offset=".838" stop-color="#d3d6fd"/>
    <stop offset="1" stop-color="#d9dcff"/>
  </radialGradient>
  <path fill="url(#e)" d="M20 15c0-2.766-2.238-5-5-5s-5 2.234-5 5c0 2.762 2.238 5 5 5s5-2.238 5-5"/>
</svg>